<svg width="329" height="129" xmlns="http://www.w3.org/2000/svg" xmlns:xlink="http://www.w3.org/1999/xlink" xml:space="preserve" overflow="hidden"><defs><clipPath id="clip0"><rect x="868" y="150" width="329" height="129"/></clipPath></defs><g clip-path="url(#clip0)" transform="translate(-868 -150)"><path d="M141.069 52.4228 150.942 52.4228 150.942 104.707 141.069 104.707Z" transform="matrix(1.00034 0 0 1 829.581 116.302)"/><path d="M186.47 86.7688C186.47 88.2289 186.261 89.5499 185.774 90.8014 185.288 92.0528 184.662 93.1653 183.828 94.0691 182.993 95.0425 182.02 95.7377 180.838 96.2939 179.656 96.8502 178.405 97.0587 177.084 97.0587 174.928 97.0587 173.121 96.3635 171.8 95.0425 170.409 93.6519 169.783 91.7747 169.783 89.2718L169.783 64.868 159.911 64.868 159.911 89.3413C159.911 94.2777 161.162 98.2407 163.734 101.161 166.307 104.081 169.992 105.541 174.928 105.541 176.458 105.541 177.848 105.402 179.1 105.054 180.351 104.707 181.394 104.289 182.367 103.733 183.341 103.177 184.175 102.621 184.87 101.995 185.566 101.369 186.191 100.813 186.678 100.257L186.956 104.707 196.412 104.707 196.412 64.868 186.539 64.868 186.539 86.7688Z" transform="matrix(1.00034 0 0 1 829.581 116.302)"/><path d="M228.116 96.9892C227.212 97.4064 225.961 97.6845 224.431 97.6845 222.762 97.6845 221.58 97.0587 220.816 95.8768 220.051 94.6948 219.703 92.9567 219.703 90.7318L219.703 73.3503 230.202 73.3503 230.202 64.868 219.703 64.868 219.703 52.4228 209.83 52.4228 209.83 64.868 203.156 64.868 203.156 73.3503 209.83 73.3503 209.83 91.3576C209.83 93.5129 210.039 95.5291 210.526 97.3368 210.943 99.1445 211.708 100.674 212.751 101.995 213.793 103.247 215.114 104.289 216.783 104.985 218.452 105.68 220.468 106.028 222.901 106.028 225.265 106.028 227.351 105.68 229.228 104.985 231.105 104.289 233.052 103.108 234.999 101.508L230.827 95.3901C229.924 96.0158 229.02 96.5025 228.116 96.9892" transform="matrix(1.00034 0 0 1 829.581 116.302)"/><path d="M261.906 96.9892C261.002 97.4064 259.75 97.6845 258.221 97.6845 256.552 97.6845 255.37 97.0587 254.605 95.8768 253.841 94.6948 253.493 92.9567 253.493 90.7318L253.493 73.3503 263.991 73.3503 263.991 64.868 253.493 64.868 253.493 52.4228 243.62 52.4228 243.62 64.868 236.946 64.868 236.946 73.3503 243.62 73.3503 243.62 91.3576C243.62 93.5129 243.829 95.5291 244.315 97.3368 244.733 99.1445 245.497 100.674 246.54 101.995 247.583 103.247 248.904 104.289 250.573 104.985 252.241 105.68 254.258 106.028 256.691 106.028 259.055 106.028 261.141 105.68 263.018 104.985 264.895 104.289 266.842 103.108 268.789 101.508L264.617 95.3901C263.644 96.0158 262.809 96.5025 261.906 96.9892" transform="matrix(1.00034 0 0 1 829.581 116.302)"/><path d="M280.052 81.0677C280.052 80.0943 280.261 79.0514 280.747 78.078 281.164 77.1047 281.86 76.2008 282.694 75.3665 283.528 74.5322 284.571 73.9065 285.823 73.3503 287.074 72.794 288.534 72.5855 290.133 72.5855 291.663 72.5855 292.984 72.8636 294.166 73.3503 295.348 73.9065 296.321 74.5322 297.016 75.3665 297.781 76.2008 298.337 77.1047 298.755 78.078 299.172 79.0514 299.311 80.0943 299.311 81.0677L280.052 81.0677ZM305.081 71.334C303.552 69.2482 301.605 67.51 299.102 66.189 296.599 64.868 293.61 64.2423 290.064 64.2423 287.144 64.2423 284.432 64.7985 281.999 65.8414 279.565 66.8843 277.479 68.3444 275.741 70.152 274.003 71.9597 272.613 74.115 271.639 76.618 270.666 79.1209 270.179 81.7629 270.179 84.683 270.179 87.8813 270.666 90.7318 271.639 93.3738 272.613 96.0158 274.003 98.2407 275.811 100.118 277.619 101.995 279.774 103.455 282.346 104.498 284.919 105.541 287.769 106.097 290.829 106.097 293.888 106.097 296.53 105.75 298.685 105.124 300.91 104.429 302.718 103.733 304.108 102.899 305.499 102.065 306.611 101.3 307.376 100.535 308.141 99.7703 308.558 99.3531 308.766 99.1445L303.413 93.1653C303.065 93.5129 302.578 93.93 301.953 94.4863 301.327 95.0425 300.493 95.5291 299.519 96.0158 298.546 96.5025 297.294 96.9197 295.904 97.2673 294.513 97.6149 292.845 97.8235 290.968 97.8235 289.716 97.8235 288.395 97.6149 287.074 97.1283 285.753 96.7111 284.571 96.0158 283.598 95.1815 282.555 94.3472 281.721 93.3738 281.095 92.1919 280.469 91.0099 280.121 89.6889 280.121 88.2984L309.323 88.2984 309.323 86.9079C309.323 84.1268 308.975 81.4153 308.349 78.7038 307.654 75.8532 306.542 73.4893 305.081 71.334" transform="matrix(1.00034 0 0 1 829.581 116.302)"/><path d="M81.6239 62.9213 52.2838 84.2659 52.2838 73.8369 81.6239 52.4228Z" fill="#FFAE00" transform="matrix(1.00034 0 0 1 829.581 116.302)"/><path d="M81.6239 104.707 73.2112 110.894 73.2112 100.466 81.6239 94.2777Z" fill="#4FB54B" transform="matrix(1.00034 0 0 1 829.581 116.302)"/><path d="M81.6239 83.6402 63.8947 96.7111 63.8947 86.2822 81.6239 73.2112Z" fill="#E40070" transform="matrix(1.00034 0 0 1 829.581 116.302)"/><path d="M92.1224 52.4228 133.977 52.4228 133.977 62.8518 92.1224 62.8518Z" transform="matrix(1.00034 0 0 1 829.581 116.302)"/><path d="M92.1224 73.3503 123.479 73.3503 123.479 83.7792 92.1224 83.7792Z" transform="matrix(1.00034 0 0 1 829.581 116.302)"/><path d="M92.1224 94.2777 102.551 94.2777 102.551 104.707 92.1224 104.707Z" transform="matrix(1.00034 0 0 1 829.581 116.302)"/><path d="M296.53 115.553 292.706 115.553 292.706 133.143 296.53 133.143 296.53 115.553ZM283.528 130.292C283.042 130.64 282.485 130.849 281.86 130.849 280.608 130.849 279.982 130.362 279.982 129.319 279.982 128.763 280.191 128.346 280.608 128.067 281.025 127.789 281.79 127.65 282.833 127.65 283.181 127.65 283.459 127.65 283.667 127.72 283.945 127.72 284.085 127.789 284.154 127.789L284.154 128.763C284.293 129.388 284.015 129.875 283.528 130.292M287.978 133.143 287.978 125.912C287.978 124.174 287.561 122.853 286.657 121.81 285.753 120.767 284.363 120.281 282.485 120.281 281.025 120.281 279.843 120.42 279.009 120.767 278.105 121.115 277.41 121.462 276.923 121.88L278.453 124.174C278.87 123.896 279.287 123.687 279.843 123.479 280.4 123.27 281.095 123.131 281.929 123.131 282.555 123.131 283.111 123.27 283.598 123.548 284.085 123.826 284.293 124.244 284.293 124.939L284.293 125.217C284.154 125.217 283.876 125.147 283.389 125.147 282.972 125.147 282.485 125.147 282.068 125.147 281.025 125.147 280.052 125.286 279.148 125.634 278.314 125.982 277.619 126.468 277.132 127.164 276.645 127.859 276.367 128.624 276.367 129.597 276.367 130.57 276.576 131.335 277.062 131.891 277.549 132.448 278.036 132.865 278.731 133.073 279.357 133.282 279.982 133.421 280.539 133.421 282.138 133.421 283.389 132.934 284.293 131.891L284.432 133.073 287.978 133.073ZM264.061 133.143 264.061 126.468C264.061 125.773 264.27 125.147 264.687 124.591 265.104 124.035 265.73 123.757 266.564 123.757 267.19 123.757 267.676 123.965 268.024 124.383 268.372 124.8 268.511 125.356 268.511 126.051L268.511 133.143 272.335 133.143 272.335 125.495C272.335 123.826 271.917 122.575 271.083 121.741 270.249 120.906 269.136 120.489 267.676 120.489 266.981 120.489 266.286 120.628 265.59 120.906 264.895 121.184 264.409 121.602 263.991 122.088L263.852 120.767 260.237 120.767 260.237 133.143 264.061 133.143ZM247.792 129.806C247.375 129.458 247.027 129.11 246.749 128.554 246.54 128.067 246.401 127.511 246.401 126.955 246.401 126.399 246.54 125.843 246.749 125.356 246.957 124.869 247.305 124.452 247.792 124.104 248.209 123.757 248.765 123.618 249.391 123.618 250.017 123.618 250.573 123.757 250.99 124.104 251.407 124.452 251.755 124.8 251.963 125.356 252.172 125.843 252.311 126.399 252.311 126.955 252.311 127.511 252.172 128.067 251.963 128.554 251.755 129.041 251.407 129.458 250.99 129.806 250.573 130.153 250.017 130.292 249.391 130.292 248.835 130.292 248.278 130.084 247.792 129.806M243.62 130.292C244.176 131.266 244.941 132.1 245.984 132.726 246.957 133.351 248.139 133.63 249.46 133.63 250.781 133.63 251.963 133.351 252.937 132.726 253.91 132.1 254.675 131.335 255.231 130.292 255.787 129.319 256.065 128.207 256.065 126.955 256.065 125.773 255.787 124.661 255.231 123.618 254.675 122.644 253.91 121.81 252.937 121.254 251.963 120.698 250.781 120.35 249.46 120.35 248.139 120.35 246.957 120.628 245.984 121.254 245.011 121.81 244.246 122.644 243.62 123.618 243.064 124.591 242.786 125.704 242.786 126.955 242.786 128.137 243.064 129.249 243.62 130.292M238.545 120.767 234.721 120.767 234.721 133.143 238.545 133.143 238.545 120.767ZM238.684 115.553 234.651 115.553 234.651 118.96 238.684 118.96 238.684 115.553ZM222.971 131.127C223.249 131.891 223.736 132.517 224.431 132.934 225.126 133.351 226.03 133.56 227.212 133.56 228.602 133.56 229.924 133.073 231.105 132.17L229.576 129.875C229.298 130.084 229.089 130.223 228.811 130.362 228.533 130.501 228.185 130.57 227.838 130.57 227.351 130.57 226.934 130.431 226.725 130.084 226.517 129.736 226.378 129.319 226.378 128.693L226.378 123.826 229.576 123.826 229.576 120.837 226.378 120.837 226.378 116.804 222.554 116.804 222.554 120.837 220.607 120.837 220.607 123.826 222.554 123.826 222.554 128.485C222.554 129.458 222.693 130.362 222.971 131.127M212.681 130.292C212.194 130.64 211.638 130.849 211.012 130.849 209.761 130.849 209.135 130.362 209.135 129.319 209.135 128.763 209.344 128.346 209.761 128.067 210.178 127.789 210.943 127.65 211.986 127.65 212.333 127.65 212.611 127.65 212.82 127.72 213.098 127.72 213.237 127.789 213.307 127.789L213.307 128.763C213.446 129.388 213.168 129.875 212.681 130.292M217.061 133.143 217.061 125.912C217.061 124.174 216.644 122.853 215.74 121.81 214.836 120.767 213.446 120.281 211.569 120.281 210.109 120.281 208.927 120.42 208.092 120.767 207.188 121.115 206.493 121.462 206.006 121.88L207.536 124.174C207.953 123.896 208.37 123.687 208.927 123.479 209.483 123.27 210.178 123.131 211.012 123.131 211.638 123.131 212.194 123.27 212.681 123.548 213.168 123.826 213.376 124.244 213.376 124.939L213.376 125.217C213.237 125.217 212.959 125.147 212.472 125.147 212.055 125.147 211.569 125.147 211.151 125.147 210.109 125.147 209.135 125.286 208.231 125.634 207.397 125.982 206.702 126.468 206.215 127.164 205.728 127.859 205.45 128.624 205.45 129.597 205.45 130.57 205.659 131.335 206.146 131.891 206.632 132.448 207.119 132.865 207.814 133.073 208.44 133.282 209.066 133.421 209.622 133.421 211.221 133.421 212.472 132.934 213.376 131.891L213.515 133.073 217.061 133.073ZM193.144 133.143 193.144 126.468C193.144 125.773 193.353 125.147 193.77 124.591 194.187 124.035 194.813 123.757 195.647 123.757 196.273 123.757 196.759 123.965 197.107 124.383 197.455 124.8 197.594 125.356 197.594 126.051L197.594 133.143 201.418 133.143 201.418 125.495C201.418 123.826 201.001 122.575 200.166 121.741 199.332 120.906 198.22 120.489 196.759 120.489 196.064 120.489 195.369 120.628 194.674 120.906 193.978 121.184 193.492 121.602 193.075 122.088L192.936 120.767 189.32 120.767 189.32 133.143 193.144 133.143ZM180.838 133.143 180.838 127.025C180.838 126.051 181.116 125.286 181.672 124.73 182.228 124.174 182.924 123.896 183.828 123.896 184.384 123.896 184.801 123.965 185.218 124.104L185.844 120.767C185.635 120.698 185.357 120.628 185.149 120.559 184.94 120.489 184.592 120.489 184.314 120.489 183.41 120.489 182.715 120.698 182.159 121.045 181.603 121.462 181.186 121.81 180.838 122.227L180.699 120.698 177.084 120.698 177.084 133.073 180.838 133.073ZM164.291 124.591C164.499 124.244 164.777 123.896 165.195 123.687 165.612 123.409 166.098 123.34 166.655 123.34 167.211 123.34 167.697 123.479 168.115 123.687 168.462 123.965 168.74 124.244 168.949 124.591 169.158 124.939 169.227 125.286 169.227 125.634L164.013 125.634C164.013 125.286 164.152 124.939 164.291 124.591M169.644 130.153C169.018 130.431 168.254 130.57 167.211 130.57 166.168 130.57 165.473 130.292 164.847 129.806 164.291 129.319 163.943 128.693 163.943 128.067L172.773 128.067 172.773 127.442C172.773 126.051 172.564 124.8 172.078 123.757 171.591 122.714 170.896 121.88 169.992 121.254 169.088 120.628 167.976 120.35 166.655 120.35 165.334 120.35 164.152 120.628 163.178 121.254 162.205 121.88 161.51 122.644 161.023 123.687 160.536 124.661 160.258 125.773 160.258 126.955 160.258 128.276 160.536 129.388 161.092 130.431 161.649 131.405 162.413 132.239 163.456 132.795 164.499 133.351 165.681 133.63 167.072 133.63 168.115 133.63 169.018 133.491 169.783 133.282 170.548 133.004 171.104 132.795 171.591 132.517 172.008 132.239 172.356 132.03 172.495 131.891L170.965 129.458C170.757 129.597 170.27 129.875 169.644 130.153M149.69 131.127C149.968 131.891 150.455 132.517 151.15 132.934 151.845 133.351 152.749 133.56 153.931 133.56 155.322 133.56 156.643 133.073 157.825 132.17L156.295 129.875C156.017 130.084 155.808 130.223 155.53 130.362 155.252 130.501 154.905 130.57 154.557 130.57 154.07 130.57 153.653 130.431 153.445 130.084 153.236 129.736 153.097 129.319 153.097 128.693L153.097 123.826 156.295 123.826 156.295 120.837 153.097 120.837 153.097 116.804 149.273 116.804 149.273 120.837 147.326 120.837 147.326 123.826 149.273 123.826 149.273 128.485C149.273 129.458 149.412 130.362 149.69 131.127M135.437 133.143 135.437 126.468C135.437 125.773 135.646 125.147 136.063 124.591 136.48 124.035 137.106 123.757 137.94 123.757 138.566 123.757 139.053 123.965 139.4 124.383 139.748 124.8 139.887 125.356 139.887 126.051L139.887 133.143 143.711 133.143 143.711 125.495C143.711 123.826 143.294 122.575 142.459 121.741 141.625 120.906 140.513 120.489 139.053 120.489 138.357 120.489 137.662 120.628 136.967 120.906 136.272 121.184 135.785 121.602 135.368 122.088L135.229 120.767 131.613 120.767 131.613 133.143 135.437 133.143ZM126.399 115.553 122.436 115.553 122.436 133.143 126.399 133.143 126.399 115.553Z" transform="matrix(1.00034 0 0 1 829.581 116.302)"/><path d="M340.679 64.5899C339.914 64.4509 339.08 64.4509 338.106 64.4509 336.507 64.4509 335.047 64.6595 333.796 65.0071 332.544 65.4243 331.432 65.8414 330.528 66.3976 329.555 66.9538 328.79 67.5796 328.095 68.2053 327.399 68.9006 326.843 69.4568 326.356 70.013L326.078 64.868 316.623 64.868 316.623 104.707 326.496 104.707 326.496 83.1535C326.496 81.6934 326.774 80.3724 327.26 79.26 327.817 78.078 328.512 77.1047 329.416 76.2704 330.319 75.436 331.362 74.8103 332.614 74.3236 333.865 73.9065 335.117 73.6284 336.438 73.6284 337.411 73.6284 338.176 73.6979 338.871 73.7674 339.566 73.9065 340.262 74.0455 340.887 74.3236L342.904 65.0766C342.208 64.868 341.444 64.6595 340.679 64.5899" transform="matrix(1.00034 0 0 1 829.581 116.302)"/><path d="M334.143 54.0915 332.475 54.0915 332.475 53.1181 336.994 53.1181 336.994 54.0915 335.325 54.0915 335.325 58.2631 334.143 58.2631Z" transform="matrix(1.00034 0 0 1 829.581 116.302)"/><path d="M337.759 53.1181 338.871 53.1181 340.262 55.482 341.583 53.1181 342.695 53.1181 342.973 58.2631 341.791 58.2631 341.652 54.8563 340.54 56.8725 339.914 56.8725 338.802 54.8563 338.663 58.2631 337.55 58.2631Z" transform="matrix(1.00034 0 0 1 829.581 116.302)"/></g></svg>